<svg width="48" height="48" viewBox="0 0 48 48" fill="none" xmlns="http://www.w3.org/2000/svg">
<g filter="url(#filter0_d_309_298)">
<path d="M13.9167 6C14.9167 5 14.1667 2 12.4787 2C10.7907 2 10.9167 4 11.9167 4C12.9167 4 12.9167 6 12.9167 7C12.9167 8 13.9167 6 13.9167 6ZM9.73369 7.72C10.7337 6.72 9.98369 3.72 8.29569 3.72C6.60769 3.72 6.73369 5.72 7.73369 5.72C8.73369 5.72 8.73369 7.72 8.73369 8.72C8.73369 9.72 9.73369 7.72 9.73369 7.72Z" fill="#AA8DD8"/>
<path d="M36.1087 34.856C36.2977 35.664 37.3357 37.136 38.1407 36.947C38.9467 36.757 39.2177 34.976 39.0287 34.17C38.8397 33.362 38.0307 32.863 37.2247 33.053C36.4197 33.243 35.9187 34.05 36.1087 34.856ZM30.6747 35.505C30.6777 36.335 31.3557 38.003 32.1837 38C33.0117 37.996 33.6777 36.323 33.6747 35.494C33.6717 34.665 32.9977 33.997 32.1697 33.999C31.3417 34.003 30.6717 34.676 30.6747 35.505ZM25.4037 33.059C25.0777 33.823 25.0387 35.622 25.7997 35.949C26.5627 36.273 27.8367 35.002 28.1627 34.239C28.4877 33.477 28.1347 32.596 27.3737 32.269C26.6117 31.944 25.7307 32.296 25.4037 33.059ZM20.3727 22.019C19.5607 22.191 18.0647 23.192 18.2337 24.002C18.4067 24.812 20.1787 25.126 20.9907 24.955C21.8017 24.784 22.3197 23.988 22.1507 23.178C21.9787 22.368 21.1857 21.848 20.3727 22.019ZM18.3357 17.019C17.5237 17.191 16.0277 18.192 16.1967 19.002C16.3697 19.812 18.1417 20.126 18.9537 19.955C19.7647 19.784 20.2827 18.988 20.1137 18.178C19.9417 17.368 19.1477 16.848 18.3357 17.019Z" fill="#744EAA"/>
<path d="M33.7457 36C36.5767 36 38.6717 35.123 39.0117 34.973C41.2827 33.963 42.3047 31.304 41.2957 29.034C40.2967 26.784 37.6797 25.759 35.4237 26.72C35.2907 26.77 33.6307 27.369 32.0807 26.648C30.2297 25.787 29.0857 23.339 28.4527 21.439C28.3087 21.009 28.0677 20.165 27.7667 19.123C25.9007 12.652 24.9347 10.838 23.7837 9.30299C20.0727 4.35199 14.1917 4.00699 11.3007 4.58699C8.86368 5.07399 7.28268 7.44499 7.77068 9.88199C8.25868 12.32 10.6307 13.902 13.0667 13.412C13.2287 13.386 15.2707 13.106 16.4907 14.581C17.1337 15.868 18.5707 19.709 19.1207 21.615C19.4667 22.814 19.7497 23.786 19.9147 24.282C21.6877 29.599 24.5807 33.175 28.5177 34.911C30.3697 35.729 32.1717 36 33.7457 36Z" fill="#9266CC"/>
<path d="M13.1837 8C13.736 8 14.1837 7.55228 14.1837 7C14.1837 6.44772 13.736 6 13.1837 6C12.6314 6 12.1837 6.44772 12.1837 7C12.1837 7.55228 12.6314 8 13.1837 8Z" fill="#202024"/>
<path d="M37.4247 34.964C37.3357 34.964 37.2447 34.952 37.1557 34.928C36.6237 34.78 36.3117 34.229 36.4597 33.697C37.2167 30.975 35.6897 29.155 35.6747 29.137C35.3157 28.718 35.3627 28.086 35.7817 27.727C36.1997 27.368 36.8327 27.415 37.1917 27.834C37.2837 27.941 39.4257 30.494 38.3867 34.231C38.2647 34.674 37.8617 34.964 37.4247 34.964ZM30.2257 34.401C29.9807 34.401 29.7357 34.312 29.5417 34.131C29.1387 33.753 29.1177 33.12 29.4947 32.717C30.9797 31.13 30.9477 28.524 30.9467 28.497C30.9307 27.945 31.3657 27.485 31.9187 27.469C32.4607 27.464 32.9317 27.888 32.9467 28.441C32.9507 28.58 33.0197 31.878 30.9557 34.085C30.7587 34.295 30.4917 34.401 30.2257 34.401ZM21.6837 25.705C21.2037 25.705 20.7797 25.358 20.6987 24.868C20.6087 24.324 20.9767 23.808 21.5217 23.719C24.5957 23.209 26.2957 21.342 26.3127 21.323C26.6777 20.913 27.3107 20.874 27.7217 21.239C28.1337 21.604 28.1747 22.232 27.8127 22.645C27.7257 22.744 25.6567 25.06 21.8487 25.691C21.7927 25.701 21.7377 25.705 21.6837 25.705ZM24.6047 30.562C24.1797 30.562 23.7857 30.29 23.6507 29.864C23.4847 29.338 23.7767 28.775 24.3027 28.609C26.9957 27.756 28.1827 25.779 28.1947 25.759C28.4747 25.282 29.0867 25.122 29.5627 25.402C30.0397 25.681 30.1987 26.295 29.9197 26.77C29.8567 26.878 28.3247 29.433 24.9067 30.514C24.8057 30.547 24.7037 30.562 24.6047 30.562ZM19.9857 19.892C19.4897 19.892 19.0587 19.523 18.9947 19.017C18.9257 18.469 19.3137 17.969 19.8617 17.899C22.5507 17.559 24.5187 15.928 24.5377 15.911C24.9597 15.557 25.5907 15.608 25.9457 16.03C26.3017 16.451 26.2507 17.08 25.8307 17.437C25.7337 17.52 23.4107 19.466 20.1127 19.883C20.0697 19.889 20.0277 19.892 19.9857 19.892ZM18.1647 15.125C17.7397 15.125 17.3457 14.852 17.2107 14.424C17.0457 13.897 17.3377 13.336 17.8647 13.17C20.9947 12.187 22.1177 10.478 22.1637 10.406C22.4587 9.94397 23.0747 9.80097 23.5387 10.094C24.0037 10.386 24.1497 10.993 23.8627 11.46C23.8027 11.557 22.3567 13.856 18.4637 15.079C18.3647 15.11 18.2637 15.125 18.1647 15.125Z" fill="#744EAA"/>
<!--<path d="M4 0V-1H3V0H4ZM44 0H45V-1H44V0ZM44 40V41H45V40H44ZM4 40H3V41H4V40ZM4 1H44V-1H4V1ZM43 0V40H45V0H43ZM44 39H4V41H44V39ZM5 40V0H3V40H5Z" fill="black"/>-->
</g>
<defs>
<filter id="filter0_d_309_298" x="0" y="0" width="48" height="48" filterUnits="userSpaceOnUse" color-interpolation-filters="sRGB">
<feFlood flood-opacity="0" result="BackgroundImageFix"/>
<feColorMatrix in="SourceAlpha" type="matrix" values="0 0 0 0 0 0 0 0 0 0 0 0 0 0 0 0 0 0 127 0" result="hardAlpha"/>
<feOffset dy="4"/>
<feGaussianBlur stdDeviation="2"/>
<feComposite in2="hardAlpha" operator="out"/>
<feColorMatrix type="matrix" values="0 0 0 0 0 0 0 0 0 0 0 0 0 0 0 0 0 0 0.25 0"/>
<feBlend mode="normal" in2="BackgroundImageFix" result="effect1_dropShadow_309_298"/>
<feBlend mode="normal" in="SourceGraphic" in2="effect1_dropShadow_309_298" result="shape"/>
</filter>
</defs>
</svg>
